<svg xmlns="http://www.w3.org/2000/svg" width="123" height="44" viewBox="0 0 123 44">
  <path fill="#FFF" d="M32.8971272,35.7162539 C33.4626851,35.7162539 33.9132296,35.817683 34.2483079,36.0205413 C34.5829334,36.2229467 34.8401286,36.5050464 35.0180823,36.8663876 C35.1960361,37.227276 35.3110495,37.6606137 35.3635752,38.1650424 C35.416101,38.6699239 35.4419111,39.220539 35.4419111,39.8173407 C35.4419111,40.42184 35.416101,40.9747192 35.3635752,41.4755255 C35.3110495,41.9767845 35.1960361,42.408311 35.0180823,42.7687466 C34.8401286,43.1300878 34.5829334,43.406301 34.2483079,43.5982918 C33.9132296,43.7898298 33.4626851,43.8853724 32.8971272,43.8853724 C32.3315694,43.8853724 31.8814777,43.7898298 31.5459466,43.5982918 C31.2108683,43.406301 30.9541259,43.1300878 30.7761722,42.7687466 C30.5986712,42.408311 30.483205,41.9767845 30.4306793,41.4755255 C30.3781535,40.9747192 30.3518906,40.42184 30.3518906,39.8173407 C30.3518906,39.220539 30.3781535,38.6699239 30.4306793,38.1650424 C30.483205,37.6606137 30.5986712,37.227276 30.7761722,36.8663876 C30.9541259,36.5050464 31.2108683,36.2229467 31.5459466,36.0205413 C31.8814777,35.817683 32.3315694,35.7162539 32.8971272,35.7162539 Z M66.673473,35.7162539 C67.4975845,35.7162539 68.0912164,35.9322436 68.4543689,36.3628645 C68.8170685,36.7939382 68.9986447,37.411569 68.9986447,38.2148513 L67.5532799,38.2148513 C67.5532799,38.0672358 67.5374316,37.9164505 67.5061878,37.76159 C67.474944,37.6067295 67.4242295,37.4650004 67.354497,37.33595 C67.2847645,37.2073524 67.1955612,37.1004896 67.08734,37.0153616 C66.9791187,36.9306864 66.8482571,36.8881224 66.694755,36.8881224 C66.3316025,36.8881224 66.0698792,37.101848 65.9091322,37.5292992 C65.7483852,37.9567505 65.6682381,38.6644902 65.6682381,39.6516128 C65.6682381,40.123892 65.6822751,40.5504377 65.7103493,40.9344193 C65.7379706,41.3170425 65.7886851,41.6435174 65.8620401,41.9124857 C65.9353951,42.1819067 66.0404467,42.3874818 66.1762892,42.5314749 C66.3125846,42.6750152 66.4887271,42.7470118 66.7051696,42.7470118 C66.7957313,42.7470118 66.8953491,42.7207489 67.0035704,42.6695815 C67.1122444,42.6179613 67.2127679,42.5409839 67.3074049,42.4372908 C67.4015891,42.3340504 67.4803777,42.2031887 67.5428653,42.0451586 C67.6058057,41.8866756 67.6375023,41.7005713 67.6375023,41.4868457 L67.6375023,40.6799409 L66.642682,40.6799409 L66.642682,39.5080725 L69.0824143,39.5080725 L69.0824143,43.7640197 L67.9725806,43.7640197 L67.9725806,43.0340924 L67.9517514,43.0340924 C67.7697224,43.3438134 67.5519215,43.5629727 67.2969903,43.6915703 C67.0416063,43.8210736 66.7364134,43.8853724 66.3805059,43.8853724 C65.9195468,43.8853724 65.5446213,43.8006972 65.2543711,43.6313468 C64.9650264,43.4619964 64.7381694,43.2002731 64.5737999,42.8461768 C64.4098832,42.4929862 64.2993979,42.056026 64.2441553,41.5362018 C64.188007,41.0168304 64.1599329,40.4145951 64.1599329,39.7294958 C64.1599329,39.0656785 64.2002328,38.4838196 64.2808328,37.9825606 C64.3609799,37.4813015 64.4990865,37.0633593 64.6942469,36.7278282 C64.8898602,36.3927499 65.1479611,36.1405355 65.4690023,35.9707323 C65.7904964,35.8013819 66.1921375,35.7162539 66.673473,35.7162539 Z M82.4574723,35.7162539 C83.0230301,35.7162539 83.4731218,35.817683 83.8082001,36.0205413 C84.1437312,36.2229467 84.4000208,36.5050464 84.5779746,36.8663876 C84.7563811,37.227276 84.8713945,37.6606137 84.9234674,38.1650424 C84.9759932,38.6699239 85.0022561,39.220539 85.0022561,39.8173407 C85.0022561,40.42184 84.9759932,40.9747192 84.9234674,41.4755255 C84.8713945,41.9767845 84.7563811,42.408311 84.5779746,42.7687466 C84.4000208,43.1300878 84.1437312,43.406301 83.8082001,43.5982918 C83.4731218,43.7898298 83.0230301,43.8853724 82.4574723,43.8853724 C81.8919144,43.8853724 81.44137,43.7898298 81.1062916,43.5982918 C80.7712133,43.406301 80.5140181,43.1300878 80.3365172,42.7687466 C80.1585634,42.408311 80.0430973,41.9767845 79.9905715,41.4755255 C79.9380457,40.9747192 79.9117828,40.42184 79.9117828,39.8173407 C79.9117828,39.220539 79.9380457,38.6699239 79.9905715,38.1650424 C80.0430973,37.6606137 80.1585634,37.227276 80.3365172,36.8663876 C80.5140181,36.5050464 80.7712133,36.2229467 81.1062916,36.0205413 C81.44137,35.817683 81.8919144,35.7162539 82.4574723,35.7162539 Z M89.4012909,35.8711144 L89.4012909,41.3759076 C89.4012909,41.5751433 89.4130639,41.7576252 89.4375156,41.9233531 C89.4619672,42.089081 89.5077009,42.2330741 89.5738109,42.3544268 C89.6403738,42.4757795 89.7313883,42.5722277 89.8464016,42.6419602 C89.961415,42.7121455 90.1063137,42.7470118 90.2810978,42.7470118 C90.462674,42.7470118 90.6089312,42.7121455 90.7207749,42.6419602 C90.8326186,42.5722277 90.9213691,42.4757795 90.9879319,42.3544268 C91.0544948,42.2330741 91.0993228,42.089081 91.1242273,41.9233531 C91.1482261,41.7576252 91.1609048,41.5751433 91.1609048,41.3759076 L91.1609048,35.8711144 L92.6692099,35.8711144 L92.6692099,41.3759076 C92.6692099,41.8771666 92.6026471,42.2919392 92.4699742,42.6193198 C92.3373013,42.947606 92.1593476,43.207518 91.9356601,43.399056 C91.7119727,43.5910469 91.4574944,43.7196445 91.1713194,43.7857545 C90.8846916,43.8523174 90.588102,43.8853724 90.2810978,43.8853724 C89.9736408,43.8853724 89.6765985,43.8559398 89.3908763,43.7970747 C89.1042485,43.7386624 88.8493173,43.6186682 88.6260827,43.4379976 C88.4023953,43.257327 88.2244415,43.0010374 88.0917686,42.6695815 C87.9590957,42.3381257 87.8929857,41.907052 87.8929857,41.3759076 L87.8929857,35.8711144 L89.4012909,35.8711144 Z M24.0995106,35.8711144 L24.0995106,38.8890832 L25.8591245,38.8890832 L25.8591245,35.8711144 L27.3669768,35.8711144 L27.3669768,43.7640197 L25.8591245,43.7640197 L25.8591245,40.2597346 L24.0995106,40.2597346 L24.0995106,43.7640197 L22.5912054,43.7640197 L22.5912054,35.8711144 L24.0995106,35.8711144 Z M42.8050304,35.8711144 L42.8050304,37.1756558 L41.1712973,37.1756558 L41.1712973,43.7640197 L39.6629921,43.7640197 L39.6629921,37.1756558 L38.029259,37.1756558 L38.029259,35.8711144 L42.8050304,35.8711144 Z M49.7280198,35.8711144 L49.7280198,37.1756558 L47.0569024,37.1756558 L47.0569024,39.0326235 L49.5704425,39.0326235 L49.5704425,40.3371648 L47.0569024,40.3371648 L47.0569024,42.4599312 L49.8326186,42.4599312 L49.8326186,43.7640197 L45.54905,43.7640197 L45.54905,35.8711144 L49.7280198,35.8711144 Z M54.1895422,35.8711144 L54.1895422,42.4599312 L56.8606596,42.4599312 L56.8606596,43.7640197 L52.681237,43.7640197 L52.681237,35.8711144 L54.1895422,35.8711144 Z M74.9372284,35.8711144 C75.5657266,35.8711144 76.054307,36.0391064 76.4038752,36.3737319 C76.7525378,36.7097158 76.9273218,37.2195782 76.9273218,37.9055831 C76.9273218,38.4358219 76.8258927,38.8687068 76.6234873,39.2037851 C76.4210819,39.5393162 76.1068328,39.7553059 75.68074,39.8508485 L75.68074,39.8725833 C76.0579295,39.9319012 76.3336899,40.0609517 76.5080212,40.2597346 C76.6828052,40.4585175 76.7910265,40.779106 76.8331377,41.2210471 C76.8471747,41.3691155 76.8575893,41.5294097 76.8643815,41.7019297 C76.8711736,41.8753554 76.8784185,42.0691574 76.8852107,42.2824302 C76.8987949,42.7026365 76.9200769,43.023225 76.948151,43.2446483 C76.9902622,43.4651661 77.0808239,43.6164041 77.2207418,43.6979097 L77.2207418,43.7640197 L75.5870086,43.7640197 C75.5095784,43.6535344 75.4611279,43.5258424 75.4398459,43.3823021 C75.4190167,43.2387618 75.4054324,43.0897878 75.3981875,42.9349273 L75.3560763,41.4207356 C75.342492,41.1110146 75.2686842,40.8678564 75.1364642,40.6908083 C75.0033385,40.514213 74.7801039,40.4254625 74.4658547,40.4254625 L73.6594028,40.4254625 L73.6594028,43.7640197 L72.1515504,43.7640197 L72.1515504,35.8711144 L74.9372284,35.8711144 Z M98.3560321,35.8711144 C98.7400137,35.8711144 99.0628662,35.9394885 99.3245895,36.0757839 C99.5863129,36.2120793 99.7977744,36.3904858 99.9585215,36.6119092 C100.118816,36.8333325 100.234282,37.0855469 100.304014,37.369005 C100.373747,37.6533688 100.408613,37.9422606 100.408613,38.2370389 C100.408613,38.6423026 100.351106,38.995946 100.23564,39.2979693 C100.12108,39.5999926 99.9603327,39.847226 99.7543048,40.038764 C99.5478241,40.230302 99.2983266,40.3738423 99.0049067,40.4693849 C98.7119396,40.5653803 98.3877287,40.6138309 98.0313684,40.6138309 L97.2249164,40.6138309 L97.2249164,43.7640197 L95.7166113,43.7640197 L95.7166113,35.8711144 L98.3560321,35.8711144 Z M82.4574723,36.8881224 C82.2337849,36.8881224 82.0540199,36.9415538 81.9177245,37.0484166 C81.781882,37.1552794 81.6768304,37.3268938 81.6039282,37.5623543 C81.5305732,37.7987203 81.4816699,38.1002908 81.4567654,38.4688769 C81.4327666,38.837463 81.420088,39.2866491 81.420088,39.8173407 C81.420088,40.3484851 81.4327666,40.7994823 81.4567654,41.1716909 C81.4816699,41.5438995 81.5305732,41.8459228 81.6039282,42.0782136 C81.6768304,42.3105044 81.781882,42.4798548 81.9177245,42.5862648 C82.0540199,42.6935804 82.2337849,42.7470118 82.4574723,42.7470118 C82.6807069,42.7470118 82.8609247,42.6935804 82.9967672,42.5862648 C83.1330626,42.4798548 83.2376613,42.3105044 83.3110163,42.0782136 C83.3843713,41.8459228 83.4332746,41.5438995 83.4572735,41.1716909 C83.4817251,40.7994823 83.493951,40.3484851 83.493951,39.8173407 C83.493951,39.2866491 83.4817251,38.837463 83.4572735,38.4688769 C83.4332746,38.1002908 83.3843713,37.7987203 83.3110163,37.5623543 C83.2376613,37.3268938 83.1330626,37.1552794 82.9967672,37.0484166 C82.8609247,36.9415538 82.6807069,36.8881224 82.4574723,36.8881224 Z M32.8971272,36.8881224 C32.6738926,36.8881224 32.4941277,36.9415538 32.3578323,37.0484166 C32.2215369,37.1552794 32.1169382,37.3268938 32.0435832,37.5623543 C31.9697754,37.7987203 31.9213249,38.1002908 31.8968732,38.4688769 C31.8724216,38.837463 31.8601957,39.2866491 31.8601957,39.8173407 C31.8601957,40.3484851 31.8724216,40.7994823 31.8968732,41.1716909 C31.9213249,41.5438995 31.9697754,41.8459228 32.0435832,42.0782136 C32.1169382,42.3105044 32.2215369,42.4798548 32.3578323,42.5862648 C32.4941277,42.6935804 32.6738926,42.7470118 32.8971272,42.7470118 C33.1203618,42.7470118 33.3005796,42.6935804 33.436875,42.5862648 C33.5727176,42.4798548 33.6777691,42.3105044 33.7506713,42.0782136 C33.8240263,41.8459228 33.8724768,41.5438995 33.8973813,41.1716909 C33.9213801,40.7994823 33.9340588,40.3484851 33.9340588,39.8173407 C33.9340588,39.2866491 33.9213801,38.837463 33.8973813,38.4688769 C33.8724768,38.1002908 33.8240263,37.7987203 33.7506713,37.5623543 C33.6777691,37.3268938 33.5727176,37.1552794 33.436875,37.0484166 C33.3005796,36.9415538 33.1203618,36.8881224 32.8971272,36.8881224 Z M97.8529618,37.0429829 L97.2249164,37.0429829 L97.2249164,39.4419624 L97.895073,39.4419624 C98.1952851,39.4419624 98.4379905,39.345967 98.6231891,39.154429 C98.8083878,38.962891 98.9007608,38.6644902 98.9007608,38.2587738 C98.9007608,37.8612079 98.8201608,37.5591846 98.6598666,37.3527039 C98.4991196,37.1462232 98.2301513,37.0429829 97.8529618,37.0429829 Z M74.3712178,37.0429829 L73.6594028,37.0429829 L73.6594028,39.3201569 L74.287901,39.3201569 C74.6510534,39.3201569 74.9299835,39.230048 75.1255968,39.0493774 C75.32121,38.8687068 75.4190167,38.5648723 75.4190167,38.1374211 C75.4190167,37.4074937 75.0694485,37.0429829 74.3712178,37.0429829 Z M113.435461,6.9595623 C119.2459,6.9595623 123.000136,10.8867706 123.000136,16.9652721 C123.000136,23.021586 119.2459,26.9356628 113.435461,26.9356628 C107.646304,26.9356628 103.905653,23.021586 103.905653,16.9652721 C103.905653,10.8867706 107.646304,6.9595623 113.435461,6.9595623 Z M84.1373919,6.9595623 C86.7134195,6.9595623 88.9213138,7.89144223 90.5215391,9.65377298 C92.2231936,11.5270418 93.158696,14.2665333 93.1465885,17.2740875 L93.1465885,17.2740875 L93.1465885,17.3334054 C93.1465885,17.9619037 92.6510976,18.4704076 92.0398061,18.4704076 L92.0398061,18.4704076 L91.907586,18.4722189 L80.223315,18.4722189 C80.4279845,21.2411429 81.7325258,22.5339113 84.3108175,22.5339113 C86.0364708,22.5339113 87.4673457,21.5123752 87.8535914,20.5243471 C87.9043059,20.3948438 88.036526,20.3169608 88.1705573,20.3418652 L88.1705573,20.3418652 L92.2440227,21.0337566 C92.3314148,21.0486993 92.4070338,21.1030363 92.4500506,21.1827306 C92.4935202,21.2619721 92.4989539,21.3566091 92.4654461,21.4408315 C91.0141948,25.0868457 88.2122157,26.9356628 84.1373919,26.9356628 C78.499473,26.9356628 74.7117298,22.9287603 74.7117298,16.9652721 C74.7117298,11.1675119 78.6756155,6.9595623 84.1373919,6.9595623 Z M64.2151755,6.9595623 C68.8256719,6.9595623 72.204529,9.47310238 72.8221598,13.3645388 C72.8479699,13.5266442 72.7402015,13.6796935 72.5826241,13.7064092 L72.5826241,13.7064092 L67.8589257,14.5083331 C67.782401,14.5210117 67.7040652,14.5028994 67.6411248,14.4558073 C67.5781844,14.409168 67.5369788,14.3389827 67.5243002,14.260194 C67.2308803,12.3090421 66.1368949,11.3604083 64.1798565,11.3604083 C60.4713547,11.3604083 60.2834392,16.088182 60.2834392,17.0359102 C60.2834392,19.694349 61.2796179,22.5339113 64.0766161,22.5339113 C66.6571719,22.5339113 67.4663407,20.6678874 67.6913865,19.1029811 C67.7031595,19.0237396 67.7452707,18.9526487 67.8077583,18.9055566 C67.8706987,18.8584645 67.9494874,18.8389938 68.026012,18.8521252 L68.026012,18.8521252 L72.6319802,19.6345783 C72.7098633,19.647257 72.7800486,19.6929906 72.8244239,19.7604591 C72.8692519,19.8279276 72.885553,19.9103387 72.8687991,19.9904858 C71.9563899,24.4040104 68.7645427,26.9356628 64.1110296,26.9356628 C58.6220847,26.9356628 54.7886078,22.9378165 54.7886078,17.2143168 C54.7886078,10.98503 58.4885062,6.9595623 64.2151755,6.9595623 Z M32.2514223,6.9595623 C37.6561448,6.9595623 40.3965419,8.81879408 40.3965419,12.4847318 L40.3965419,12.4847318 L40.3979003,26.1391727 C40.3979003,26.303995 40.2683971,26.4375735 40.1081029,26.4375735 L40.1081029,26.4375735 L35.1860743,26.4375735 C35.0257801,26.4375735 34.895824,26.303995 34.895824,26.1391727 C34.895824,25.6945147 34.9012577,25.4160375 34.9062386,25.2005006 C34.9071443,25.1443524 34.9080499,25.093185 34.9089555,25.0447345 C33.488948,26.315768 31.6722802,26.9356628 29.3788051,26.9356628 C25.4429934,26.9356628 22.9982803,24.7092034 22.9982803,21.125224 C23.0408443,15.9573203 27.3687881,15.4533445 30.8463575,15.047628 C33.4056312,14.7483216 34.9709903,14.4965601 34.9026162,13.1403986 C34.9021634,11.3001847 33.7950465,10.9338627 32.0087169,10.9338627 C30.1485795,10.9338627 29.2085491,11.7172214 29.0491605,13.399405 C29.0419155,13.4813634 29.0011628,13.5565296 28.9377696,13.6067913 C28.8734708,13.6570531 28.7928708,13.6778823 28.7131765,13.664298 L28.7131765,13.664298 L23.8930299,12.846073 C23.8165052,12.8329416 23.748584,12.7890192 23.7037559,12.7238147 C23.6589279,12.6590631 23.6412683,12.5780104 23.6553054,12.4992217 C24.2706722,8.97818267 27.4041071,6.9595623 32.2514223,6.9595623 Z M101.254912,0.452251103 C101.415206,0.452251103 101.54471,0.585376807 101.54471,0.750199107 L101.54471,0.750199107 L101.54471,26.1391727 C101.54471,26.303995 101.415206,26.4375735 101.254912,26.4375735 L101.254912,26.4375735 L96.0023334,26.4375735 C95.8420392,26.4375735 95.7116304,26.303995 95.7116304,26.1391727 L95.7116304,26.1391727 L95.7116304,0.750199107 C95.7116304,0.585376807 95.8420392,0.452251103 96.0023334,0.452251103 L96.0023334,0.452251103 Z M54.1582984,6.9595623 C54.4512655,6.9595623 54.7487607,6.99895664 55.0679907,7.08091499 C55.1485906,7.10174418 55.2165119,7.15653401 55.2550006,7.23170022 C55.2934893,7.30731925 55.2984702,7.39652252 55.2690377,7.47576401 L55.2690377,7.47576401 L53.5746282,12.0645255 C53.532517,12.1786333 53.428371,12.2542523 53.3097352,12.2569691 C50.3913843,12.3239848 48.9116061,14.2072154 48.9116061,17.8541352 L48.9116061,17.8541352 L48.9116061,26.1391727 C48.9116061,26.303995 48.78165,26.4375735 48.6213558,26.4375735 L48.6213558,26.4375735 L43.7074778,26.4375735 C43.5471836,26.4375735 43.4176803,26.303995 43.4176803,26.1391727 L43.4176803,26.1391727 L43.4176803,7.75514687 C43.4176803,7.59032457 43.5471836,7.45719886 43.7074778,7.45719886 L43.7074778,7.45719886 L48.3795561,7.45719886 C48.5398503,7.45719886 48.6693535,7.59032457 48.6693535,7.75514687 L48.6693535,7.75514687 L48.6693535,9.87519635 C49.6763997,8.07256564 51.6302684,6.9595623 54.1582984,6.9595623 Z M11.917603,0.452251103 C17.4223962,0.452251103 20.0980417,2.60807245 20.0980417,7.0442375 C20.0980417,9.36578676 19.1426157,11.0837423 17.181502,12.2759871 C19.827715,13.3052209 21.274891,15.5887342 21.274891,18.7783174 C21.274891,24.4316317 16.4203309,26.4375735 12.2640015,26.4375735 L12.2640015,26.4375735 L0.290385921,26.4375735 C0.130091706,26.4375735 0.000135661765,26.303995 0.000135661765,26.1391727 L0.000135661765,26.1391727 L0.000135661765,0.750199107 C0.000135661765,0.585376807 0.130091706,0.452251103 0.290385921,0.452251103 L0.290385921,0.452251103 Z M34.9021634,17.6961051 C34.2148,18.0547294 33.2824673,18.1864967 32.3075706,18.3241505 C31.9272114,18.3780347 31.5337208,18.4328245 31.1606066,18.5030098 C29.2656029,18.8575589 28.4926588,19.5557896 28.4926588,20.9119511 C28.4926588,22.2907531 29.3824275,22.9604569 31.2126796,22.9604569 C33.6954287,22.9604569 34.9021634,21.6740279 34.9021634,19.0273621 L34.9021634,19.0273621 Z M113.435461,11.3604083 C109.924837,11.3604083 109.400032,14.8719383 109.400032,16.9652721 C109.400032,19.0450216 109.924837,22.5339113 113.435461,22.5339113 C116.976877,22.5339113 117.505757,19.0450216 117.505757,16.9652721 C117.505757,14.8719383 116.976877,11.3604083 113.435461,11.3604083 Z M11.640937,15.1300392 L6.01343277,15.1300392 L6.01343277,21.5028663 L11.5372439,21.5028663 C14.0430862,21.5028663 15.2611411,20.5071403 15.2611411,18.4586346 C15.2611411,16.2185909 14.0770468,15.1300392 11.640937,15.1300392 L11.640937,15.1300392 Z M83.9997381,11.3604083 C81.0632748,11.3604083 80.3917598,13.5986408 80.2396161,14.6758722 L80.2396161,14.6758722 L87.5570018,14.6758722 C87.0675158,12.3267017 86.0188113,11.3604083 83.9997381,11.3604083 Z M10.8100334,5.38650552 L6.01343277,5.38650552 L6.01343277,10.7287404 L11.2252588,10.7287404 C12.6090416,10.7287404 14.2577174,10.2560083 14.2577174,8.00464436 C14.2577174,6.21831476 13.1623736,5.38650552 10.8100334,5.38650552 L10.8100334,5.38650552 Z M119.292992,0.452703911 C119.400308,0.452703911 119.495851,0.520172381 119.534792,0.622054297 C119.574186,0.723936213 119.547471,0.839855194 119.469135,0.913662982 L119.469135,0.913662982 L114.701061,5.41322122 C114.653516,5.45804926 114.590123,5.48340654 114.525371,5.48340654 L114.525371,5.48340654 L111.459858,5.48340654 C111.363862,5.48340654 111.276018,5.42906952 111.230737,5.34258309 C111.185909,5.25609666 111.191342,5.15059228 111.245227,5.06908674 L111.245227,5.06908674 L114.217009,0.569528509 C114.265459,0.496626338 114.346059,0.452703911 114.432546,0.452703911 L114.432546,0.452703911 Z"/>
</svg>
