<svg id="Layer_1" data-name="Layer 1" xmlns="http://www.w3.org/2000/svg" viewBox="0 0 405.68 96.23"><defs><style>.cls-1{fill:#696e78;}.cls-2{fill:#4b5996;fill-rule:evenodd;}.cls-3{fill:none;stroke:#4b5996;}</style></defs><path class="cls-1" d="M10.45,79.19v6.75H2.57V79.19H0v16H2.57V88.37h7.88v6.82H13v-16ZM27.7,90.42A8,8,0,0,0,29.46,93a8.2,8.2,0,0,0,8.95,1.74A7.94,7.94,0,0,0,41,93a8.35,8.35,0,0,0,1.78-2.61,8.12,8.12,0,0,0,0-6.32A8.84,8.84,0,0,0,41,81.45a8.38,8.38,0,0,0-2.61-1.79,8.11,8.11,0,0,0-6.34,0,8.38,8.38,0,0,0-2.61,1.79,8.75,8.75,0,0,0-1.76,2.62,8.2,8.2,0,0,0,0,6.35ZM30.12,85a5.67,5.67,0,0,1,3-3.07,5.43,5.43,0,0,1,6.12,1.24A6.09,6.09,0,0,1,40.43,85a5.81,5.81,0,0,1,.43,2.25,5.67,5.67,0,0,1-1.6,4,5.31,5.31,0,0,1-1.75,1.22,5.14,5.14,0,0,1-2.15.44,5.33,5.33,0,0,1-2.19-.44,5.48,5.48,0,0,1-1.79-1.22,5.66,5.66,0,0,1-1.2-1.81,5.81,5.81,0,0,1-.43-2.22A6.18,6.18,0,0,1,30.17,85Zm25.39-3.33h4V95.2h2.55V81.65H66.2V79.19H55.51ZM79.8,95.2H90.68V92.74H82.32V88.38h7.17V85.92H82.32V81.65h8V79.19H79.8v16Zm25.08,0h10.45V92.74H107.4V79.19h-2.6v16ZM139,80.48a11.1,11.1,0,0,0-2.12-1,9.43,9.43,0,0,0-2.89-.4,5.78,5.78,0,0,0-2.52.61,4.5,4.5,0,0,0-1.7,1.54,4.22,4.22,0,0,0-.62,2.29,3.7,3.7,0,0,0,.42,1.85,3.79,3.79,0,0,0,1.09,1.26,6.21,6.21,0,0,0,1.44.87c.51.24,1,.45,1.52.64a10.89,10.89,0,0,1,1.38.65,3.43,3.43,0,0,1,1,.85,1.81,1.81,0,0,1,.39,1.16,2,2,0,0,1-.45,1.35,2.6,2.6,0,0,1-1.12.73,3.74,3.74,0,0,1-1.36.23,4.8,4.8,0,0,1-1.36-.19,8,8,0,0,1-1.41-.53,6.49,6.49,0,0,1-1.21-.73l-1.14,2a8.91,8.91,0,0,0,1.51.91,9.21,9.21,0,0,0,3.82.83,6.11,6.11,0,0,0,2.88-.62,4.37,4.37,0,0,0,2.44-4,4.89,4.89,0,0,0-.33-1.92,3.79,3.79,0,0,0-.9-1.31,6,6,0,0,0-1.29-.89,13.09,13.09,0,0,0-1.44-.63c-.56-.22-1.09-.45-1.6-.69a4.2,4.2,0,0,1-1.23-.86,1.66,1.66,0,0,1-.47-1.16,1.75,1.75,0,0,1,.69-1.45,3.06,3.06,0,0,1,1.88-.53,6.15,6.15,0,0,1,1.85.32,14.69,14.69,0,0,1,1.83.76l1-2Zm31.11,3.74-.22-.38a5.52,5.52,0,0,1-.34-.69,1.9,1.9,0,0,1-.16-.75,1.81,1.81,0,0,1,.46-1.23,1.69,1.69,0,0,1,1.34-.53,2.56,2.56,0,0,1,1.26.39,9.58,9.58,0,0,1,1.32,1.06L175,80.4A6,6,0,0,0,173.22,79a5.54,5.54,0,0,0-2.5-.56,4.27,4.27,0,0,0-2.21.55,3.83,3.83,0,0,0-1.35,1.39,3.66,3.66,0,0,0-.25,3,6,6,0,0,0,.5,1.09l.5.79,7.43,9.9h2.95l-8.23-11Zm-.19,1.43a6.25,6.25,0,0,0-2.05.42A6.88,6.88,0,0,0,166,87.13a5.16,5.16,0,0,0-1.28,1.55,4.19,4.19,0,0,0-.47,1.95,4.46,4.46,0,0,0,.7,2.47,4.89,4.89,0,0,0,1.92,1.72,6.46,6.46,0,0,0,5.82-.15,4.79,4.79,0,0,0,1.81-1.87l-1.63-1.4a3,3,0,0,1-.61.88,2.92,2.92,0,0,1-1,.63,3.21,3.21,0,0,1-1.37.25,3.27,3.27,0,0,1-1.53-.35,2.58,2.58,0,0,1-1.09-.93,2.34,2.34,0,0,1-.41-1.39,2.49,2.49,0,0,1,.24-1.07,3.12,3.12,0,0,1,.66-.91,3.43,3.43,0,0,1,1-.62,2.93,2.93,0,0,1,1.13-.23v-2ZM173,91.24l1.85,1.12,2.64-6.71h-2.36Zm31.37-12v16h2.58V89.63h2.31a6.19,6.19,0,0,0,2.62-.48,4.59,4.59,0,0,0,1.7-1.23,4.7,4.7,0,0,0,.93-1.7,6.39,6.39,0,0,0,.29-1.9,5.16,5.16,0,0,0-.43-2.19,4.42,4.42,0,0,0-1.2-1.61,5.05,5.05,0,0,0-1.87-1,8.23,8.23,0,0,0-2.42-.34Zm2.58,8V81.67h2.37a3.15,3.15,0,0,1,1.39.29,2.5,2.5,0,0,1,.87.71,3.16,3.16,0,0,1,.45.9,2.94,2.94,0,0,1,0,1.76,2.6,2.6,0,0,1-.46.89,2.43,2.43,0,0,1-.89.7,3.24,3.24,0,0,1-1.44.27Zm2,1.59,4.18,6.44h3L212,88.71l-3.06.07Zm20.61,6.44h10.94V92.76h-8.37V88.4h7.18V85.94h-7.18V81.67h8.06V79.21H229.5v16ZM264.16,80.5a11.1,11.1,0,0,0-2.12-1,9.43,9.43,0,0,0-2.89-.4,5.78,5.78,0,0,0-2.52.61,4.61,4.61,0,0,0-1.71,1.54,4.21,4.21,0,0,0-.61,2.29,3.7,3.7,0,0,0,.42,1.85,4.09,4.09,0,0,0,1.08,1.26,6.89,6.89,0,0,0,1.45.87c.51.24,1,.45,1.51.64a11.72,11.72,0,0,1,1.39.65,3.43,3.43,0,0,1,1,.85,1.81,1.81,0,0,1,.39,1.16,2,2,0,0,1-.45,1.35,2.63,2.63,0,0,1-1.13.73,3.65,3.65,0,0,1-1.35.23,4.8,4.8,0,0,1-1.36-.19,8,8,0,0,1-1.41-.53,6.49,6.49,0,0,1-1.21-.73l-1.14,2a9.73,9.73,0,0,0,1.58.87,9.06,9.06,0,0,0,1.82.61,8.46,8.46,0,0,0,2,.22,6.15,6.15,0,0,0,2.89-.62,4.37,4.37,0,0,0,2.44-4,4.89,4.89,0,0,0-.33-1.92,3.79,3.79,0,0,0-.9-1.31,6,6,0,0,0-1.29-.89,13.09,13.09,0,0,0-1.44-.63c-.56-.22-1.09-.45-1.6-.69a4.2,4.2,0,0,1-1.23-.86,1.66,1.66,0,0,1-.47-1.16,1.75,1.75,0,0,1,.69-1.45,3.06,3.06,0,0,1,1.88-.53,6.15,6.15,0,0,1,1.85.32,14.69,14.69,0,0,1,1.83.76l1-2Zm13.64,9.92A7.93,7.93,0,0,0,279.56,93a8.17,8.17,0,0,0,8.94,1.74A8.14,8.14,0,0,0,291.12,93a8.35,8.35,0,0,0,1.78-2.61,8,8,0,0,0,0-6.32,8.81,8.81,0,0,0-1.78-2.62,8.59,8.59,0,0,0-2.62-1.79,8.11,8.11,0,0,0-6.34,0,8.44,8.44,0,0,0-4.36,4.41,7.79,7.79,0,0,0-.64,3.15A8,8,0,0,0,277.8,90.42ZM280.22,85a5.58,5.58,0,0,1,2.95-3.07,5.66,5.66,0,0,1,4.35,0,5.73,5.73,0,0,1,1.76,1.24A5.91,5.91,0,0,1,290.47,85a6,6,0,0,1,0,4.47,5.78,5.78,0,0,1-1.18,1.81,5.31,5.31,0,0,1-1.75,1.22,5.07,5.07,0,0,1-2.14.44,5.34,5.34,0,0,1-2.2-.44,5.44,5.44,0,0,1-1.78-1.22,5.26,5.26,0,0,1-1.2-1.81,5.59,5.59,0,0,1-.43-2.22,6.18,6.18,0,0,1,.42-2.24Zm27.37-5.79v16h2.57V89.63h2.31a6.19,6.19,0,0,0,2.62-.48,4.53,4.53,0,0,0,2.64-2.93,6.39,6.39,0,0,0,.29-1.9,5.52,5.52,0,0,0-.43-2.19,4.85,4.85,0,0,0-1.2-1.61,5.13,5.13,0,0,0-1.87-1,8.23,8.23,0,0,0-2.42-.34Zm2.57,8V81.67h2.38a3.15,3.15,0,0,1,1.39.29,2.47,2.47,0,0,1,.86.71,2.84,2.84,0,0,1,.46.9,3.74,3.74,0,0,1,.13.87,2.91,2.91,0,0,1-.14.89,2.62,2.62,0,0,1-.47.89,2.43,2.43,0,0,1-.89.7,3.2,3.2,0,0,1-1.43.27Zm2,1.59,4.18,6.44h3l-4.1-6.51-3.05.07Zm19.08-7.11h4V95.22h2.56V81.65h4.13V79.19H331.21v2.46ZM365,80.5a11.1,11.1,0,0,0-2.12-1,9.43,9.43,0,0,0-2.89-.4,5.78,5.78,0,0,0-2.52.61,4.61,4.61,0,0,0-1.71,1.54,4.21,4.21,0,0,0-.61,2.29,3.7,3.7,0,0,0,.42,1.85,4.09,4.09,0,0,0,1.08,1.26,6.89,6.89,0,0,0,1.45.87c.51.24,1,.45,1.51.64a11.72,11.72,0,0,1,1.39.65,3.71,3.71,0,0,1,1,.85,1.81,1.81,0,0,1,.39,1.16,2,2,0,0,1-.45,1.35,2.63,2.63,0,0,1-1.13.73,3.65,3.65,0,0,1-1.35.23,4.8,4.8,0,0,1-1.36-.19,8,8,0,0,1-1.41-.53,6.49,6.49,0,0,1-1.21-.73l-1.14,2a9.73,9.73,0,0,0,1.58.87,9.12,9.12,0,0,0,3.81.83,6.15,6.15,0,0,0,2.89-.62,4.37,4.37,0,0,0,2.44-4,4.89,4.89,0,0,0-.33-1.92,3.76,3.76,0,0,0-.89-1.31,6,6,0,0,0-1.29-.89,13.09,13.09,0,0,0-1.44-.63c-.56-.22-1.09-.45-1.6-.69a4.2,4.2,0,0,1-1.23-.86,1.66,1.66,0,0,1-.47-1.16,1.75,1.75,0,0,1,.69-1.45,3.06,3.06,0,0,1,1.88-.53,6.15,6.15,0,0,1,1.85.32,15.2,15.2,0,0,1,1.82.76l1-2Z" transform="translate(0.1 0.19)"/><polygon id="Fill-797" class="cls-2" points="112.66 66.37 84.37 1.27 56.28 66.37 63.62 66.37 84.39 17.68 98.46 50.42 77.08 50.42 74.64 56.91 101.23 56.91 105.16 66.37 112.66 66.37"/><polygon id="Stroke-798" class="cls-3" points="112.66 66.37 84.37 1.27 56.28 66.37 63.62 66.37 84.39 17.68 98.46 50.42 77.08 50.42 74.64 56.91 101.23 56.91 105.16 66.37 112.66 66.37"/><polygon id="Fill-799" class="cls-2" points="397.41 95.73 380.71 56.91 354.12 56.91 356.44 50.42 377.82 50.42 363.19 17.68 343.27 66.37 335.93 66.37 362.89 1.27 404.91 95.73 397.41 95.73"/><polygon id="Stroke-800" class="cls-3" points="404.91 95.73 362.89 1.27 335.93 66.37 343.27 66.37 363.19 17.68 377.82 50.42 356.44 50.42 354.12 56.91 380.71 56.91 397.41 95.73 404.91 95.73"/><path id="Fill-801" class="cls-2" d="M191.92,5.43h0s0,0,0,0a3.49,3.49,0,0,0-7,0v0h0V66.11h7Z" transform="translate(0.1 0.19)"/><path id="Stroke-803" class="cls-3" d="M191.92,5.43h0s0,0,0,0a3.49,3.49,0,0,0-7,0v0h0V66.11h7Z" transform="translate(0.1 0.19)"/><path id="Fill-805" class="cls-2" d="M208.08,60c5.1,5,11.64,7.48,19.51,7.48,6,0,10.75-1.62,14.41-4.87s5.55-7.12,5.55-11.54c0-5.32-1.61-9.47-5.19-12.8-3.49-3.52-6.62-5.5-12.62-8.48a50.28,50.28,0,0,1-9.4-5.86,8.09,8.09,0,0,1-2.68-6.31c0-5.41,4.38-8.93,11.63-8.93,4.66,0,8.87,1.89,12.71,5.77V6.49q-5-4.33-12.62-4.33c-11.45,0-18.71,6.31-18.71,15.42a13.69,13.69,0,0,0,4.75,11,47.69,47.69,0,0,0,4.83,3.6c1.52,1,3.67,2.17,6.45,3.61,5.37,2.8,9,5.23,10.92,7.13s2.95,4.6,2.95,8.11c0,5-4.83,9.92-13.52,9.92-7.24,0-13.6-3.25-19-9.65Z" transform="translate(0.1 0.19)"/><path id="Stroke-807" class="cls-3" d="M208.08,60c5.1,5,11.64,7.48,19.51,7.48,6,0,10.75-1.62,14.41-4.87s5.55-7.12,5.55-11.54c0-5.32-1.61-9.47-5.19-12.8-3.49-3.52-6.62-5.5-12.62-8.48a50.28,50.28,0,0,1-9.4-5.86,8.09,8.09,0,0,1-2.68-6.31c0-5.41,4.38-8.93,11.63-8.93,4.66,0,8.87,1.89,12.71,5.77V6.49q-5-4.33-12.62-4.33c-11.45,0-18.71,6.31-18.71,15.42a13.69,13.69,0,0,0,4.75,11,47.69,47.69,0,0,0,4.83,3.6c1.52,1,3.67,2.17,6.45,3.61,5.37,2.8,9,5.23,10.92,7.13s2.95,4.6,2.95,8.11c0,5-4.83,9.92-13.52,9.92-7.24,0-13.6-3.25-19-9.65Z" transform="translate(0.1 0.19)"/><polygon id="Fill-810" class="cls-2" points="269.61 66.37 269.61 22.28 293.89 55.94 318.27 22.28 318.27 66.37 325.25 66.37 325.25 1.63 293.89 44.82 262.62 1.63 262.62 66.37 269.61 66.37"/><polygon id="Stroke-811" class="cls-3" points="269.61 66.37 269.61 22.28 293.89 55.94 318.27 22.28 318.27 66.37 325.25 66.37 325.25 1.63 293.89 44.82 262.62 1.63 262.62 66.37 269.61 66.37"/><path id="Fill-812" class="cls-2" d="M165.88,22.09a17.75,17.75,0,0,0-5.46-13.35,18.15,18.15,0,0,0-13.25-5.41H123.66V66.18h7V9.82H146.9c6.9,0,12,5.32,12,12.27a12.25,12.25,0,0,1-3.58,9.1,11.68,11.68,0,0,1-8.86,3.61h-6.69a3.24,3.24,0,0,0,0,6.48H147l14.06,24.89h8L154,39.94a18.72,18.72,0,0,0,11.9-17.85" transform="translate(0.1 0.19)"/><path id="Stroke-814" class="cls-3" d="M165.88,22.09a17.75,17.75,0,0,0-5.46-13.35,18.15,18.15,0,0,0-13.25-5.41H123.66V66.18h7V9.82H146.9c6.9,0,12,5.32,12,12.27a12.25,12.25,0,0,1-3.58,9.1,11.68,11.68,0,0,1-8.86,3.61h-6.69a3.24,3.24,0,0,0,0,6.48H147l14.06,24.89h8L154,39.94A18.72,18.72,0,0,0,165.88,22.09Z" transform="translate(0.1 0.19)"/><polygon id="Fill-817" class="cls-2" points="18.47 33.57 47.21 1.98 38.63 1.98 9.85 34.17 14.18 38.77 38.9 66.36 48.04 66.36 18.47 33.57"/><polygon id="Stroke-818" class="cls-3" points="18.47 33.57 47.21 1.98 38.63 1.98 9.85 34.17 14.18 38.77 38.9 66.36 48.04 66.36 18.47 33.57"/><polygon id="Fill-819" class="cls-2" points="0.5 67 7.55 67 7.55 1.98 0.5 1.98 0.5 67"/><polygon id="Stroke-820" class="cls-3" points="0.5 67 7.55 67 7.55 1.98 0.5 1.98 0.5 67"/></svg>