<?xml version="1.0" encoding="UTF-8" standalone="no"?><!DOCTYPE svg PUBLIC "-//W3C//DTD SVG 1.1//EN" "http://www.w3.org/Graphics/SVG/1.1/DTD/svg11.dtd"><svg width="100%" height="100%" viewBox="0 0 500 140" version="1.1" xmlns="http://www.w3.org/2000/svg" xmlns:xlink="http://www.w3.org/1999/xlink" xml:space="preserve" xmlns:serif="http://www.serif.com/" style="fill-rule:evenodd;clip-rule:evenodd;stroke-linejoin:round;stroke-miterlimit:1.41421;"><g id="logo"><path d="M268.433,109.918c-2.033,0.257 -3.993,0.452 -5.882,0.581c-1.888,0.129 -3.704,0.193 -5.447,0.193c-4.873,0 -8.649,-1.065 -11.33,-3.195c-2.677,-2.13 -4.017,-5.132 -4.017,-9.005c0,-0.71 0.049,-1.54 0.145,-2.493c0.097,-0.952 0.242,-2.058 0.437,-3.316l3.388,-23.625l-6.13,0l5.705,-11.668l2.168,0l7.949,-16.17l14.079,0l-2.373,16.17l8.037,0l-1.695,11.668l-8.035,0l-2.954,20.333c-0.032,0.161 -0.056,0.347 -0.072,0.556c-0.017,0.211 -0.025,0.526 -0.025,0.945c0,1.42 0.444,2.437 1.331,3.049c0.887,0.614 2.349,0.92 4.381,0.92c0.68,0 1.179,-0.008 1.501,-0.024c0.323,-0.016 0.646,-0.04 0.969,-0.073l-2.13,15.154Z" style="fill:#df4026;fill-rule:nonzero;"/><path d="M301.496,69.638c-3.292,0 -5.833,1.525 -7.624,4.574c-1.792,3.051 -2.688,7.353 -2.688,12.903c0,3.454 0.637,6.02 1.913,7.698c1.274,1.678 3.25,2.518 5.93,2.518c3.098,0 5.569,-1.534 7.406,-4.599c1.841,-3.067 2.761,-7.183 2.761,-12.347c0,-3.582 -0.638,-6.268 -1.912,-8.06c-1.275,-1.791 -3.204,-2.687 -5.786,-2.687m-31.129,16.702c0,-9.391 2.863,-16.896 8.593,-22.511c5.728,-5.617 13.403,-8.424 23.02,-8.424c8.65,0 15.493,2.275 20.528,6.827c5.035,4.55 7.552,10.73 7.552,18.542c0,9.714 -2.784,17.33 -8.352,22.85c-5.567,5.519 -13.24,8.279 -23.02,8.279c-8.714,0 -15.612,-2.301 -20.696,-6.899c-5.083,-4.599 -7.625,-10.82 -7.625,-18.664" style="fill:#df4026;fill-rule:nonzero;"/><path d="M364.578,110.014l0.678,-7.116c-2.292,2.841 -4.937,5.003 -7.94,6.487c-3.001,1.484 -6.228,2.227 -9.682,2.227c-5.519,0 -9.828,-1.582 -12.926,-4.744c-3.1,-3.163 -4.648,-7.569 -4.648,-13.218c0,-0.741 0.032,-1.507 0.097,-2.299c0.064,-0.79 0.145,-1.588 0.242,-2.396l4.55,-31.565l20.334,0l-4.067,28.128c-0.097,0.58 -0.168,1.178 -0.217,1.79c-0.049,0.615 -0.073,1.244 -0.073,1.889c0,1.969 0.564,3.502 1.694,4.599c1.131,1.098 2.743,1.647 4.842,1.647c2.485,0 4.429,-0.751 5.832,-2.252c1.405,-1.501 2.366,-3.897 2.883,-7.19l4.26,-28.611l20.236,0l-7.649,52.624l-18.446,0Z" style="fill:#df4026;fill-rule:nonzero;"/><path d="M389.249,110.014l7.456,-52.624l18.639,0l-1.113,7.601c2.066,-3.13 4.316,-5.447 6.752,-6.948c2.437,-1.5 5.188,-2.251 8.255,-2.251c0.548,0 1.308,0.048 2.275,0.145c0.129,0.033 0.227,0.049 0.29,0.049l-2.854,20.091c-0.421,-0.032 -0.97,-0.08 -1.648,-0.145c-1.517,-0.161 -2.534,-0.243 -3.049,-0.243c-3.745,0 -6.504,1.002 -8.279,3.002c-1.775,2.002 -3.05,5.73 -3.825,11.183l-2.856,20.14l-20.043,0Z" style="fill:#df4026;fill-rule:nonzero;"/><path d="M426.314,92.295l19.414,0c0.032,2.39 0.656,4.237 1.87,5.544c1.216,1.307 2.94,1.96 5.175,1.96c1.845,0 3.351,-0.417 4.518,-1.254c1.167,-0.836 1.75,-1.898 1.75,-3.185c0,-1.157 -0.488,-2.154 -1.461,-2.99c-0.973,-0.836 -2.596,-1.64 -4.867,-2.413c-0.162,-0.064 -0.403,-0.159 -0.726,-0.288c-14.275,-5.125 -21.413,-10.972 -21.413,-17.54c0,-5.381 2.162,-9.482 6.488,-12.301c4.324,-2.82 10.57,-4.23 18.736,-4.23c7.778,0 13.788,1.421 18.032,4.26c4.245,2.841 6.512,6.972 6.803,12.394l-18.494,0l0,-0.387c0,-1.646 -0.591,-2.936 -1.774,-3.873c-1.183,-0.936 -2.827,-1.404 -4.933,-1.404c-1.718,0 -3.054,0.337 -4.01,1.011c-0.957,0.673 -1.434,1.62 -1.434,2.84c0,1.155 0.542,2.134 1.63,2.936c1.086,0.802 3.204,1.701 6.353,2.695c0.869,0.292 2.177,0.695 3.92,1.212c4.585,1.358 7.927,2.636 10.026,3.831c2.26,1.261 4.034,2.942 5.326,5.043c1.291,2.101 1.937,4.331 1.937,6.691c0,5.98 -2.258,10.619 -6.777,13.916c-4.519,3.297 -10.925,4.946 -19.221,4.946c-8.488,0 -15.088,-1.672 -19.8,-5.015c-4.713,-3.342 -7.068,-8.013 -7.068,-14.012l0,-0.387Z" style="fill:#df4026;fill-rule:nonzero;"/><path d="M238.906,74.981l-17.25,0l-5.838,12.442l20.89,0l2.198,-12.442Z" style="fill:#df4026;fill-rule:nonzero;"/><path d="M190.737,90.504l-4.261,-33.114l-13.197,0l-6.362,0l-17.022,0l-15.25,16.944l4.571,-30.58c8.686,-0.488 17.633,-0.662 26.773,-0.485l0.001,0l0.12,-6.219c-80.405,-1.562 -146.102,23.748 -146.739,56.529c-0.02,1.043 0.027,2.08 0.139,3.111c1.884,-12.867 13.854,-24.447 32.71,-33.516c0.125,2.093 0.547,4.026 1.276,5.794c1.12,2.716 2.952,5.048 5.498,6.996c1.321,0.958 3.475,1.989 6.462,3.091c2.986,1.102 7.024,2.323 12.114,3.666c0.657,0.16 1.61,0.399 2.86,0.718c6.218,1.598 9.215,3.674 8.991,6.23c-0.14,1.597 -1.009,2.851 -2.605,3.762c-1.597,0.91 -3.722,1.365 -6.373,1.365c-3.163,0 -5.494,-0.558 -6.994,-1.677c-1.499,-1.117 -2.44,-2.955 -2.824,-5.511l-22.042,0c0.005,7.604 2.564,13.498 7.677,17.682c5.112,4.186 12.349,6.278 21.709,6.278c10.159,0 18.145,-2.092 23.958,-6.278c5.812,-4.184 9.06,-10.175 9.743,-17.97c0.315,-3.609 -0.13,-6.739 -1.335,-9.392c-1.207,-2.65 -3.284,-5.014 -6.233,-7.091c-2.375,-1.693 -7.578,-3.577 -15.606,-5.655c-1.781,-0.446 -3.11,-0.783 -3.985,-1.006c-0.281,-0.064 -0.687,-0.175 -1.216,-0.336c-6.061,-1.564 -8.989,-3.513 -8.785,-5.846c0.143,-1.628 0.839,-2.842 2.092,-3.641c1.251,-0.798 3.091,-1.199 5.519,-1.199c2.748,0 4.82,0.513 6.215,1.534c1.396,1.023 2.179,2.572 2.349,4.649l21.515,0c-0.032,-4.928 -1.221,-9.063 -3.563,-12.409c3.275,-0.506 6.609,-0.963 10,-1.371l-9.408,64.457l20.043,0l2.081,-13.894l5.762,-5.616l7.504,19.51l21.834,0l-14.67,-32.145l16.171,-15.406l8.888,43.485c0.194,0.839 0.346,1.711 0.46,2.614c0.113,0.904 0.169,1.759 0.169,2.566c0,1.872 -0.484,3.26 -1.452,4.164c-0.968,0.903 -2.437,1.345 -4.406,1.355c-11.505,0.062 -11.98,13.374 -11.98,13.374c2.357,0.29 8.487,0.932 10.31,1.077c1.823,0.146 3.365,0.218 4.623,0.218c5.294,0 9.578,-1.138 12.854,-3.413c3.276,-2.276 6.301,-6.286 9.078,-12.031l28.617,-58.482l-18.957,0c-10.544,22.677 -15.421,33.114 -15.421,33.114" style="fill:#1797d0;fill-rule:nonzero;"/><path d="M233.534,36.812l-20.867,0.003l-0.001,-1.291l-3.315,-4.336l4.721,0l0,-3.398l-7.319,0l-14.606,-19.106l-1.405,0.001l8.912,28.016l-16.411,1.057l-6.488,-8.48l-2.343,0.003l1.877,9.689l-4.377,1.251l4.377,1.249l-1.875,9.691l2.345,0l6.486,-8.48l16.411,1.052l-8.904,28.018l1.404,-0.001l14.601,-19.109l7.32,-0.002l-0.003,-3.398l-4.72,0.001l3.314,-4.338l0,-1.291l20.864,-0.004c0,0 8.243,0.351 8.245,-3.4c-0.002,-3.75 -8.243,-3.397 -8.243,-3.397" style="fill:#1797d0;fill-rule:nonzero;"/><path d="M83.901,37.198c-9.233,0 -16.659,1.997 -22.279,5.99c-2.688,1.91 -4.796,4.166 -6.338,6.762c10.902,-4.815 23.837,-8.84 38.27,-11.87c-2.901,-0.581 -6.112,-0.882 -9.653,-0.882" style="fill:#1797d0;fill-rule:nonzero;"/></g></svg>