<?xml version="1.0" encoding="UTF-8" standalone="no"?><!DOCTYPE svg PUBLIC "-//W3C//DTD SVG 1.1//EN" "http://www.w3.org/Graphics/SVG/1.1/DTD/svg11.dtd"><svg width="100%" height="100%" viewBox="0 0 1920 620" version="1.1" xmlns="http://www.w3.org/2000/svg" xmlns:xlink="http://www.w3.org/1999/xlink" xml:space="preserve" xmlns:serif="http://www.serif.com/" style="fill-rule:evenodd;clip-rule:evenodd;stroke-linecap:round;stroke-linejoin:round;stroke-miterlimit:1.5;"><path d="M1115.11,273.5l0,-73.5" style="fill:none;stroke:#ededed;stroke-width:1.54px;stroke-dasharray:1.54,4.63,0,0;"/><clipPath id="_clip1"><rect x="-1" y="230" width="1924" height="385"/></clipPath><g clip-path="url(#_clip1)"><path d="M1923,230l0,570l-1924,0l0,-198l501.042,-237l316.658,64l300.625,-138l294.613,74l511.062,-135" style="fill:#fff;"/></g><circle cx="500" cy="195" r="5" style="fill:#fff;"/><circle cx="1408" cy="195" r="5" style="fill:#fff;"/><circle cx="1115" cy="195" r="5" style="fill:#fff;"/><circle cx="813" cy="195" r="5" style="fill:#fff;"/><path d="M1408.11,346l0,-147" style="fill:none;stroke:#ededed;stroke-width:1.54px;stroke-dasharray:1.54,4.63,0,0;"/><circle cx="500" cy="366" r="10" style="fill:#0083da;stroke:#ededed;stroke-width:8.88px;"/><circle cx="1115" cy="291" r="10" style="fill:#0083da;stroke:#ededed;stroke-width:8.88px;"/><circle cx="1408" cy="364" r="10" style="fill:#0083da;stroke:#ededed;stroke-width:8.88px;"/><circle cx="814" cy="428" r="10" style="fill:#0083da;stroke:#ededed;stroke-width:8.88px;"/><path d="M500,346l0,-147" style="fill:none;stroke:#ededed;stroke-width:1.54px;stroke-dasharray:1.54,4.63,0,0;"/><path d="M813,407l0,-207" style="fill:none;stroke:#ededed;stroke-width:1.54px;stroke-dasharray:1.54,4.63,0,0;"/><g><g transform="matrix(1,0,0,1,-42.3823,-31)"><text x="488.855px" y="142.417px" style="font-family:'Arial-BoldMT', 'Arial', sans-serif;font-weight:700;font-size:36px;fill:#fff;">250K+</text><text x="443.209px" y="171.005px" style="font-family:'ArialMT', 'Arial', sans-serif;font-size:18px;fill:#fff;">USERS EVER<tspan x="558.917px 570.598px 575.599px " y="171.005px 171.005px 171.005px ">Y M</tspan>ONTH</text></g><path d="M482,166l36,0" style="fill:none;stroke:#ededed;stroke-width:2.46px;"/></g><g><g transform="matrix(1,0,0,1,270.618,-31)"><text x="488.855px" y="142.417px" style="font-family:'Arial-BoldMT', 'Arial', sans-serif;font-weight:700;font-size:36px;fill:#fff;">400K+</text><text x="458.88px" y="171.005px" style="font-family:'ArialMT', 'Arial', sans-serif;font-size:18px;fill:#fff;">UNIQUE SESSIONS</text></g><path d="M795,166l36,0" style="fill:none;stroke:#ededed;stroke-width:2.46px;"/></g><g><g transform="matrix(1,0,0,1,572.723,-31)"><text x="498.866px" y="142.417px" style="font-family:'Arial-BoldMT', 'Arial', sans-serif;font-weight:700;font-size:36px;fill:#fff;">20K+</text><text x="420.204px" y="171.005px" style="font-family:'ArialMT', 'Arial', sans-serif;font-size:18px;fill:#fff;">SOCIAL<tspan x="485.559px 490.56px " y="171.005px 171.005px "> M</tspan>EDIA<tspan x="546.573px 551.574px " y="171.005px 171.005px "> F</tspan>OLLOWERS</text></g><path d="M1097.11,166l36,0" style="fill:none;stroke:#ededed;stroke-width:2.46px;"/></g><g><g transform="matrix(1,0,0,1,865.723,-31)"><text x="498.866px" y="142.417px" style="font-family:'Arial-BoldMT', 'Arial', sans-serif;font-weight:700;font-size:36px;fill:#fff;">50K+</text><text x="460.207px" y="171.005px" style="font-family:'ArialMT', 'Arial', sans-serif;font-size:18px;fill:#fff;">USERS DA<tspan x="550.893px 560.552px 571.564px 576.565px " y="171.005px 171.005px 171.005px 171.005px ">TA B</tspan>ASE</text></g><path d="M1390.11,166l36,0" style="fill:none;stroke:#ededed;stroke-width:2.46px;"/></g></svg>